<mxfile host="app.diagrams.net" modified="2023-06-20T15:52:53.940Z" agent="Mozilla/5.0 (Windows NT 10.0; Win64; x64) AppleWebKit/537.36 (KHTML, like Gecko) Chrome/114.0.0.0 Safari/537.36" etag="rldSDydwGu7_Ti5bTWzf" version="21.3.8" type="github">
  <diagram id="2f404044-711c-603c-8f00-f6bb4c023d3c" name="Page-1">
    <mxGraphModel dx="1434" dy="796" grid="1" gridSize="10" guides="1" tooltips="1" connect="1" arrows="1" fold="1" page="1" pageScale="1" pageWidth="1169" pageHeight="827" background="#ffffff" math="0" shadow="0">
      <root>
        <mxCell id="0" />
        <mxCell id="1" parent="0" />
        <mxCell id="21" value="" style="swimlane;shadow=0;strokeColor=#4277BB;fillColor=#ffffff;fontColor=none;align=right;startSize=0;collapsible=0;noLabel=1;strokeWidth=3;" parent="1" vertex="1">
          <mxGeometry x="65" y="49" width="1775" height="960" as="geometry" />
        </mxCell>
        <mxCell id="22" value="Public Network" style="text;html=1;align=left;verticalAlign=middle;fontColor=#4277BB;shadow=0;dashed=0;strokeColor=none;fillColor=none;labelBackgroundColor=none;fontStyle=1;fontSize=14;spacingLeft=5;" parent="21" vertex="1">
          <mxGeometry y="10" width="150" height="20" as="geometry" />
        </mxCell>
        <mxCell id="44" value="" style="line;strokeWidth=3;direction=south;html=1;shadow=0;labelBackgroundColor=none;fillColor=none;gradientColor=none;fontSize=12;fontColor=#4277BB;align=right;strokeColor=#4277BB;" parent="21" vertex="1">
          <mxGeometry x="225" width="10" height="930" as="geometry" />
        </mxCell>
        <mxCell id="lown9K5yKBKj89JTiUl6-62" style="edgeStyle=orthogonalEdgeStyle;comic=0;html=1;exitX=1;exitY=0.5;entryX=0;entryY=0.25;startArrow=none;startFill=1;endArrow=classic;endFill=1;jettySize=auto;orthogonalLoop=1;strokeColor=#4378BB;strokeWidth=2;fontFamily=Helvetica;fontSize=19;fontColor=#CC99FF;endSize=4;startSize=4;" parent="21" source="lown9K5yKBKj89JTiUl6-67" edge="1">
          <mxGeometry relative="1" as="geometry">
            <Array as="points">
              <mxPoint x="175" y="173" />
              <mxPoint x="175" y="268" />
            </Array>
            <mxPoint x="203.1671842700025" y="267.58359213500125" as="targetPoint" />
          </mxGeometry>
        </mxCell>
        <mxCell id="lown9K5yKBKj89JTiUl6-63" value="USER" style="aspect=fixed;perimeter=ellipsePerimeter;html=1;align=center;shadow=0;dashed=0;image;image=img/lib/ibm/users/user.svg;labelBackgroundColor=#ffffff;strokeColor=#666666;strokeWidth=3;fillColor=#C2952D;gradientColor=none;fontSize=12;fontColor=#4277BB;" parent="21" vertex="1">
          <mxGeometry x="75" y="61" width="60" height="60" as="geometry" />
        </mxCell>
        <mxCell id="lown9K5yKBKj89JTiUl6-65" value="" style="image;html=1;image=img/lib/clip_art/networking/Firewall-page1_128x128.png" parent="21" vertex="1">
          <mxGeometry x="194" y="222" width="80" height="80" as="geometry" />
        </mxCell>
        <mxCell id="lown9K5yKBKj89JTiUl6-66" value="&lt;span style=&quot;color: rgb(66 , 119 , 187) ; background-color: rgb(255 , 255 , 255)&quot;&gt;FIREWALL&lt;/span&gt;" style="text;html=1;strokeColor=none;fillColor=none;align=center;verticalAlign=middle;whiteSpace=wrap;rounded=0;" parent="21" vertex="1">
          <mxGeometry x="210" y="305" width="40" height="10" as="geometry" />
        </mxCell>
        <mxCell id="lown9K5yKBKj89JTiUl6-67" value="" style="outlineConnect=0;dashed=0;verticalLabelPosition=bottom;verticalAlign=top;align=center;html=1;shape=mxgraph.aws3.internet_gateway;fillColor=#F58536;gradientColor=none;" parent="21" vertex="1">
          <mxGeometry x="135" y="137" width="69" height="72" as="geometry" />
        </mxCell>
        <mxCell id="lown9K5yKBKj89JTiUl6-68" value="" style="edgeStyle=orthogonalEdgeStyle;comic=0;html=1;exitX=1;exitY=0.5;entryX=0.5;entryY=0;startArrow=classic;startFill=1;endArrow=none;endFill=1;jettySize=auto;orthogonalLoop=1;strokeColor=#4378BB;strokeWidth=2;fontFamily=Helvetica;fontSize=19;fontColor=#CC99FF;endSize=4;startSize=4;entryDx=0;entryDy=0;entryPerimeter=0;" parent="21" source="lown9K5yKBKj89JTiUl6-63" target="lown9K5yKBKj89JTiUl6-67" edge="1">
          <mxGeometry relative="1" as="geometry">
            <Array as="points" />
            <mxPoint x="155.00000000000682" y="91" as="sourcePoint" />
            <mxPoint x="223.16718427000228" y="267.58359213500125" as="targetPoint" />
          </mxGeometry>
        </mxCell>
        <mxCell id="lown9K5yKBKj89JTiUl6-71" value="&lt;span style=&quot;color: rgb(66 , 119 , 187) ; background-color: rgb(255 , 255 , 255)&quot;&gt;INTERNET&lt;/span&gt;" style="text;html=1;strokeColor=none;fillColor=none;align=center;verticalAlign=middle;whiteSpace=wrap;rounded=0;" parent="21" vertex="1">
          <mxGeometry x="170" y="215" width="40" height="10" as="geometry" />
        </mxCell>
        <mxCell id="lown9K5yKBKj89JTiUl6-100" value="Data Center" style="swimlane;shadow=0;strokeColor=#BB6A0D;fillColor=#ffffff;fontColor=#4277BB;align=left;startSize=0;collapsible=0;strokeWidth=1;fontStyle=0;verticalAlign=top;" parent="21" vertex="1">
          <mxGeometry x="424" y="53" width="1065" height="297" as="geometry" />
        </mxCell>
        <mxCell id="lown9K5yKBKj89JTiUl6-291" value="" style="swimlane;shadow=0;strokeColor=#000000;fillColor=#ffe6cc;align=right;startSize=0;collapsible=0;strokeWidth=1;" parent="21" vertex="1">
          <mxGeometry x="390" y="30" width="1120" height="860" as="geometry" />
        </mxCell>
        <mxCell id="lown9K5yKBKj89JTiUl6-118" value="" style="html=1;dashed=0;whitespace=wrap;fillColor=#2875E2;strokeColor=#ffffff;points=[[0.005,0.63,0],[0.1,0.2,0],[0.9,0.2,0],[0.5,0,0],[0.995,0.63,0],[0.72,0.99,0],[0.5,1,0],[0.28,0.99,0]];shape=mxgraph.kubernetes.icon;prIcon=ing" parent="lown9K5yKBKj89JTiUl6-291" vertex="1">
          <mxGeometry x="45" y="120" width="120" height="79" as="geometry" />
        </mxCell>
        <mxCell id="lown9K5yKBKj89JTiUl6-108" value="Reverse Proxy" style="text;html=1;align=left;verticalAlign=top;fontColor=#4277BB;shadow=0;dashed=0;strokeColor=none;fillColor=none;labelBackgroundColor=none;fontStyle=0;fontSize=14;spacingLeft=5;" parent="lown9K5yKBKj89JTiUl6-291" vertex="1">
          <mxGeometry x="45" y="76" width="120" height="24" as="geometry" />
        </mxCell>
        <mxCell id="U5dyf8ECy7FXiap7Likn-80" value="Web, Api -1" style="image;aspect=fixed;html=1;points=[];align=center;fontSize=12;image=img/lib/azure2/compute/Virtual_Machines_Classic.svg;" vertex="1" parent="lown9K5yKBKj89JTiUl6-291">
          <mxGeometry x="255" y="25.310000000000002" width="69" height="64" as="geometry" />
        </mxCell>
        <mxCell id="U5dyf8ECy7FXiap7Likn-83" value="Database Server" style="image;aspect=fixed;html=1;points=[];align=center;fontSize=12;image=img/lib/azure2/databases/Azure_SQL_VM.svg;" vertex="1" parent="lown9K5yKBKj89JTiUl6-291">
          <mxGeometry x="906" y="199" width="94.48" height="88.58" as="geometry" />
        </mxCell>
        <mxCell id="U5dyf8ECy7FXiap7Likn-79" value="Web, Api -2" style="image;aspect=fixed;html=1;points=[];align=center;fontSize=12;image=img/lib/azure2/compute/Virtual_Machines_Classic.svg;" vertex="1" parent="lown9K5yKBKj89JTiUl6-291">
          <mxGeometry x="255" y="231" width="69" height="64" as="geometry" />
        </mxCell>
        <mxCell id="U5dyf8ECy7FXiap7Likn-81" value="" style="edgeStyle=orthogonalEdgeStyle;orthogonalLoop=1;jettySize=auto;html=1;exitX=0.5;exitY=1;exitDx=0;exitDy=0;exitPerimeter=0;entryX=0.014;entryY=0.703;entryDx=0;entryDy=0;strokeColor=#000000;curved=1;entryPerimeter=0;" edge="1" parent="lown9K5yKBKj89JTiUl6-291" source="lown9K5yKBKj89JTiUl6-118" target="U5dyf8ECy7FXiap7Likn-79">
          <mxGeometry relative="1" as="geometry">
            <mxPoint x="594" y="222" as="sourcePoint" />
            <mxPoint x="1187.024631087122" y="339.0369466306829" as="targetPoint" />
          </mxGeometry>
        </mxCell>
        <mxCell id="lown9K5yKBKj89JTiUl6-107" style="edgeStyle=orthogonalEdgeStyle;curved=1;orthogonalLoop=1;jettySize=auto;html=1;strokeColor=#000000;" parent="lown9K5yKBKj89JTiUl6-291" source="U5dyf8ECy7FXiap7Likn-80" target="U5dyf8ECy7FXiap7Likn-83" edge="1">
          <mxGeometry relative="1" as="geometry">
            <mxPoint x="144" y="235" as="targetPoint" />
            <Array as="points">
              <mxPoint x="290" y="161" />
              <mxPoint x="455" y="161" />
              <mxPoint x="455" y="227" />
            </Array>
          </mxGeometry>
        </mxCell>
        <mxCell id="lown9K5yKBKj89JTiUl6-115" style="edgeStyle=orthogonalEdgeStyle;curved=1;orthogonalLoop=1;jettySize=auto;html=1;exitX=0.5;exitY=0;exitDx=0;exitDy=0;exitPerimeter=0;strokeColor=#000000;" parent="lown9K5yKBKj89JTiUl6-291" source="lown9K5yKBKj89JTiUl6-118" target="U5dyf8ECy7FXiap7Likn-80" edge="1">
          <mxGeometry relative="1" as="geometry">
            <Array as="points">
              <mxPoint x="105" y="101" />
              <mxPoint x="135" y="101" />
              <mxPoint x="135" y="57" />
            </Array>
            <mxPoint x="844.306" y="236.6400000000001" as="targetPoint" />
          </mxGeometry>
        </mxCell>
        <mxCell id="U5dyf8ECy7FXiap7Likn-84" value="" style="edgeStyle=orthogonalEdgeStyle;orthogonalLoop=1;jettySize=auto;html=1;strokeColor=#000000;curved=1;" edge="1" parent="lown9K5yKBKj89JTiUl6-291" source="U5dyf8ECy7FXiap7Likn-79" target="U5dyf8ECy7FXiap7Likn-83">
          <mxGeometry relative="1" as="geometry">
            <mxPoint x="335" y="251" as="sourcePoint" />
            <mxPoint x="486" y="328" as="targetPoint" />
          </mxGeometry>
        </mxCell>
        <mxCell id="U5dyf8ECy7FXiap7Likn-90" value="RabbitMQ" style="points=[[0,0,0],[0.25,0,0],[0.5,0,0],[0.75,0,0],[1,0,0],[0,1,0],[0.25,1,0],[0.5,1,0],[0.75,1,0],[1,1,0],[0,0.25,0],[0,0.5,0],[0,0.75,0],[1,0.25,0],[1,0.5,0],[1,0.75,0]];outlineConnect=0;fontColor=#232F3E;gradientColor=#F34482;gradientDirection=north;fillColor=#BC1356;strokeColor=#ffffff;dashed=0;verticalLabelPosition=bottom;verticalAlign=top;align=center;html=1;fontSize=12;fontStyle=0;aspect=fixed;shape=mxgraph.aws4.resourceIcon;resIcon=mxgraph.aws4.sqs;labelBackgroundColor=#ffffff;" vertex="1" parent="lown9K5yKBKj89JTiUl6-291">
          <mxGeometry x="465" y="42" width="58" height="58" as="geometry" />
        </mxCell>
        <mxCell id="U5dyf8ECy7FXiap7Likn-91" value="App Server" style="swimlane;shadow=0;strokeColor=#d79b00;fillColor=#ffe6cc;align=center;startSize=0;collapsible=0;strokeWidth=1;fontStyle=0;fontSize=15;labelPosition=center;verticalLabelPosition=bottom;verticalAlign=top;" vertex="1" parent="lown9K5yKBKj89JTiUl6-291">
          <mxGeometry x="432.5" y="25.31" width="257.5" height="124.69" as="geometry" />
        </mxCell>
        <mxCell id="U5dyf8ECy7FXiap7Likn-96" value="Background Services" style="image;aspect=fixed;html=1;points=[];align=center;fontSize=12;image=img/lib/azure2/iot/Windows10_Core_Services.svg;" vertex="1" parent="U5dyf8ECy7FXiap7Likn-91">
          <mxGeometry x="156.5" y="16.689999999999998" width="68" height="68" as="geometry" />
        </mxCell>
        <mxCell id="U5dyf8ECy7FXiap7Likn-93" value="" style="edgeStyle=orthogonalEdgeStyle;orthogonalLoop=1;jettySize=auto;html=1;strokeColor=#000000;curved=1;entryX=0;entryY=0.5;entryDx=0;entryDy=0;" edge="1" parent="lown9K5yKBKj89JTiUl6-291" source="U5dyf8ECy7FXiap7Likn-80" target="U5dyf8ECy7FXiap7Likn-91">
          <mxGeometry relative="1" as="geometry">
            <mxPoint x="334" y="52" as="sourcePoint" />
            <mxPoint x="805" y="44" as="targetPoint" />
          </mxGeometry>
        </mxCell>
        <mxCell id="U5dyf8ECy7FXiap7Likn-94" value="" style="edgeStyle=orthogonalEdgeStyle;orthogonalLoop=1;jettySize=auto;html=1;strokeColor=#000000;curved=1;entryX=0.577;entryY=1.016;entryDx=0;entryDy=0;entryPerimeter=0;exitX=1;exitY=0.578;exitDx=0;exitDy=0;exitPerimeter=0;" edge="1" parent="lown9K5yKBKj89JTiUl6-291" source="U5dyf8ECy7FXiap7Likn-79" target="U5dyf8ECy7FXiap7Likn-91">
          <mxGeometry relative="1" as="geometry">
            <mxPoint x="334" y="273" as="sourcePoint" />
            <mxPoint x="805" y="265" as="targetPoint" />
          </mxGeometry>
        </mxCell>
        <mxCell id="U5dyf8ECy7FXiap7Likn-95" value="" style="edgeStyle=orthogonalEdgeStyle;orthogonalLoop=1;jettySize=auto;html=1;strokeColor=#000000;curved=1;exitX=1;exitY=0.75;exitDx=0;exitDy=0;" edge="1" parent="lown9K5yKBKj89JTiUl6-291" source="U5dyf8ECy7FXiap7Likn-91" target="U5dyf8ECy7FXiap7Likn-83">
          <mxGeometry relative="1" as="geometry">
            <mxPoint x="721" y="127" as="sourcePoint" />
            <mxPoint x="978" y="11" as="targetPoint" />
          </mxGeometry>
        </mxCell>
        <mxCell id="U5dyf8ECy7FXiap7Likn-118" value="" style="line;strokeWidth=3;direction=south;html=1;shadow=0;labelBackgroundColor=none;fillColor=none;gradientColor=none;fontSize=12;fontColor=#4277BB;align=right;strokeColor=#4277BB;" vertex="1" parent="21">
          <mxGeometry x="1575" width="10" height="960" as="geometry" />
        </mxCell>
        <mxCell id="U5dyf8ECy7FXiap7Likn-119" value="Internet" style="ellipse;shape=cloud;whiteSpace=wrap;html=1;" vertex="1" parent="21">
          <mxGeometry x="1525" y="81" width="120" height="80" as="geometry" />
        </mxCell>
        <mxCell id="U5dyf8ECy7FXiap7Likn-120" value="" style="edgeStyle=orthogonalEdgeStyle;orthogonalLoop=1;jettySize=auto;html=1;strokeColor=#000000;curved=1;exitX=1;exitY=0.5;exitDx=0;exitDy=0;entryX=0.35;entryY=0.9;entryDx=0;entryDy=0;entryPerimeter=0;" edge="1" parent="21" source="lown9K5yKBKj89JTiUl6-291" target="U5dyf8ECy7FXiap7Likn-119">
          <mxGeometry relative="1" as="geometry">
            <mxPoint x="1302" y="159" as="sourcePoint" />
            <mxPoint x="1565" y="239" as="targetPoint" />
          </mxGeometry>
        </mxCell>
        <mxCell id="U5dyf8ECy7FXiap7Likn-121" value="GSTIN" style="shape=image;verticalLabelPosition=bottom;labelBackgroundColor=#ffffff;verticalAlign=top;aspect=fixed;imageAspect=0;image=data:image/png,iVBORw0KGgoAAAANSUhEUgAAAHAAAABwCAYAAADG4PRLAAAFOklEQVR4Ae2dLVP0MBSF+ZsYDAqDwaAwGAwGhcFgMBgMBoPCYDAYPAaDwmDyznmHLJed9Gzb3DZJ92Rmp9km22TPc08/st10Jyg1rcBO071X54MANh4EAiiAjSvQePflQAFsXIHGuy8HCmDjCjTefTlQABtXoPHuy4EC2LgCjXdfDhTAOhV4f38P5+fn4fHxsc4OOvVqcQ78/v4ONzc3YXd3d/U6OTkJALrEtCiALy8v4eDgYAXOQkQeYAF4SWkRAD8+PsLZ2VknOAsSgAF6KalpgHDT3d1d2Nvb6wXPggRwgG89NQvw9fU1HB0dDQZnIQI8AqDl3WpzAD8/P8PFxUUWOAsReQQCAqLF1BTA+/v7sL+/7wrPwry8vAwIkJZSEwDf3t4CLgWs2FPlESAIlFZS1QC/vr7C1dXVLODWAwIBg8CpPVULECMo7JpuXfD4Hp/BGebt7e3/Ze4u9/r6OiCQak3VAcSIyenp6SjXAdz6MQzv+14jxiBYXyIonp6eqmRYDcA4BDbmmg6CY5fXdTmA9R7HUARCbUNyVQDcNAS27ojU+03HK5SnPjd0HQKspiG5ogA9dm8AAFG73Bf3eygf6+4U5MPDwyqG5IoAhJhjh8BSYuJEpU/KPaFJtY2frNaPu3364lVndoAeQ2ApITcdm1Ce+pzHOgQGArJEmg0gohQjHR6CpbaBbbM0ZduxPxiS23QsZn0cUzYLwKmHwKKAuPZLJayPdeZYIljmunacFCCi0eP0fYjouIbE7gy7aiznbj/2FbvVOW7nmAQgog8jGPHLbPMSAbTp+Jzaa/Rd5w5w7BDY0iHj2nGK3Wo2wDlODpYKt6/LWD0BNHevzR0oDEzfMgEUwOmu7eZ2xNzt9XUZqycHyoFy4FjnMmf1LZMDt92BNlIw+jE2Grfhc11DfVbDoflsB9oGBfD3DzWpgKweIEYaANG+2P0oGJ2wdW3++Pi4080YHLd1bZ7dCIX7Wmxdm08JHtfZejaP7cU660v0w9ZFfopb+V0daN0Y82ykhg32shubIEZXwi/l62LG90zAWCe17GoL20vVxzr0Y44kgD8qd4HA+q4kgOTfs3JgV9j8XS8H/ughB/4NjNU7HQNXUkySkQN/ZJUDO+JLDuwQxmm1HCgH8lCSA7k+uaVyoBzIY0gO5PrklsqBciCPITmQ65NbKgfKgTyG5ECuT26pHCgH8hiSA7k+uaVyoBzIY0gO5PrklsqBciCPITmQ65NbKgfKgTyG5ECuT26pHCgH8hiSA7k+uaVyoBzIY0gO5PrklsqBciCPITmQ65NbKgfKgTyG5ECuT26pHCgH8hiSA7k+uaVyoBzIY0gO5PrklsqBciCPITmQ65NbKgfKgb8xhD/9Yy4U+2LThWDKflvX5tlsE3C1rWvz7NECmEXY1rV59gdPW8/m2azE6IetizybXeNXxWE5Vweig0yIbS8DRO8kgDPOlVY1QEzszXaX2+4+fP8pZrJ3ceDDw4Prc4mWDhvHcK8J0LMAohNsLrSlg8j5fphLzeMpL6MBejwyLkeApXw291F2gwHiyWNodCkC1vA9ch4OMgggHmClExU+J+jYgMCzDZ+fnwdfZQwCqOu8aeBF6Di5GZoEcMbrwAiqaymAFcHogsTWC6AA8j1wak5sHBf18tFgzGPqBh0DOV6VllBAAEuo7timADqKWWJTAlhCdcc2BdBRzBKbEsASqju2KYCOYpbYlACWUN2xTQF0FLPEpgSwhOqObQqgo5glNiWAJVR3bFMAHcUssSkBLKG6Y5v/ANeJHdCbwqsjAAAAAElFTkSuQmCC;" vertex="1" parent="21">
          <mxGeometry x="1689" y="30" width="85" height="85" as="geometry" />
        </mxCell>
        <mxCell id="U5dyf8ECy7FXiap7Likn-122" value="" style="edgeStyle=orthogonalEdgeStyle;orthogonalLoop=1;jettySize=auto;html=1;strokeColor=#000000;curved=1;exitX=0.942;exitY=0.525;exitDx=0;exitDy=0;exitPerimeter=0;" edge="1" parent="21" source="U5dyf8ECy7FXiap7Likn-119" target="U5dyf8ECy7FXiap7Likn-121">
          <mxGeometry relative="1" as="geometry">
            <mxPoint x="1603" y="390" as="sourcePoint" />
            <mxPoint x="1660" y="83" as="targetPoint" />
          </mxGeometry>
        </mxCell>
        <mxCell id="lown9K5yKBKj89JTiUl6-144" style="edgeStyle=orthogonalEdgeStyle;html=1;labelBackgroundColor=#ffffff;startArrow=classic;startFill=1;startSize=4;endArrow=classic;endFill=1;endSize=4;jettySize=auto;orthogonalLoop=1;strokeWidth=2;fontSize=19;fontColor=#CC99FF;elbow=vertical;fillColor=#e1d5e7;strokeColor=#9673a6;rounded=0;curved=1;entryX=0.1;entryY=0.2;entryDx=0;entryDy=0;entryPerimeter=0;" parent="1" edge="1" target="lown9K5yKBKj89JTiUl6-118">
          <mxGeometry relative="1" as="geometry">
            <mxPoint x="720" y="180" as="targetPoint" />
            <Array as="points">
              <mxPoint x="400" y="311" />
              <mxPoint x="400" y="240" />
              <mxPoint x="460" y="240" />
              <mxPoint x="460" y="215" />
            </Array>
            <mxPoint x="330" y="311" as="sourcePoint" />
          </mxGeometry>
        </mxCell>
        <mxCell id="U5dyf8ECy7FXiap7Likn-97" value="AWS" style="swimlane;shadow=0;strokeColor=#BB6A0D;fillColor=#ffffff;fontColor=#4277BB;align=left;startSize=0;collapsible=0;strokeWidth=1;fontStyle=0;verticalAlign=top;" vertex="1" parent="1">
          <mxGeometry x="488" y="500" width="1082" height="410" as="geometry" />
        </mxCell>
        <mxCell id="U5dyf8ECy7FXiap7Likn-98" value="NLB" style="sketch=0;outlineConnect=0;fontColor=#232F3E;gradientColor=none;fillColor=#4D27AA;strokeColor=none;dashed=0;verticalLabelPosition=bottom;verticalAlign=top;align=center;html=1;fontSize=12;fontStyle=0;aspect=fixed;pointerEvents=1;shape=mxgraph.aws4.network_load_balancer;" vertex="1" parent="U5dyf8ECy7FXiap7Likn-97">
          <mxGeometry x="58" y="99" width="78" height="78" as="geometry" />
        </mxCell>
        <mxCell id="U5dyf8ECy7FXiap7Likn-110" value="ALB" style="sketch=0;outlineConnect=0;fontColor=#232F3E;gradientColor=none;fillColor=#4D27AA;strokeColor=none;dashed=0;verticalLabelPosition=bottom;verticalAlign=top;align=center;html=1;fontSize=12;fontStyle=0;aspect=fixed;pointerEvents=1;shape=mxgraph.aws4.application_load_balancer;" vertex="1" parent="U5dyf8ECy7FXiap7Likn-97">
          <mxGeometry x="192" y="102" width="78" height="78" as="geometry" />
        </mxCell>
        <mxCell id="U5dyf8ECy7FXiap7Likn-111" value="" style="edgeStyle=orthogonalEdgeStyle;orthogonalLoop=1;jettySize=auto;html=1;strokeColor=#000000;curved=1;" edge="1" parent="U5dyf8ECy7FXiap7Likn-97" source="U5dyf8ECy7FXiap7Likn-98" target="U5dyf8ECy7FXiap7Likn-110">
          <mxGeometry relative="1" as="geometry">
            <mxPoint x="82" y="30" as="sourcePoint" />
            <mxPoint x="233" y="107" as="targetPoint" />
          </mxGeometry>
        </mxCell>
        <mxCell id="U5dyf8ECy7FXiap7Likn-113" value="Web,Api-1" style="outlineConnect=0;dashed=0;verticalLabelPosition=bottom;verticalAlign=top;align=center;html=1;shape=mxgraph.aws3.ec2;fillColor=#F58534;gradientColor=none;" vertex="1" parent="U5dyf8ECy7FXiap7Likn-97">
          <mxGeometry x="332" y="9" width="76.5" height="93" as="geometry" />
        </mxCell>
        <mxCell id="U5dyf8ECy7FXiap7Likn-112" value="" style="edgeStyle=orthogonalEdgeStyle;orthogonalLoop=1;jettySize=auto;html=1;strokeColor=#000000;curved=1;" edge="1" parent="U5dyf8ECy7FXiap7Likn-97" source="U5dyf8ECy7FXiap7Likn-110" target="U5dyf8ECy7FXiap7Likn-113">
          <mxGeometry relative="1" as="geometry">
            <mxPoint x="162" y="40" as="sourcePoint" />
            <mxPoint x="313" y="117" as="targetPoint" />
          </mxGeometry>
        </mxCell>
        <mxCell id="U5dyf8ECy7FXiap7Likn-115" value="Web,Api-2" style="outlineConnect=0;dashed=0;verticalLabelPosition=bottom;verticalAlign=top;align=center;html=1;shape=mxgraph.aws3.ec2;fillColor=#F58534;gradientColor=none;" vertex="1" parent="U5dyf8ECy7FXiap7Likn-97">
          <mxGeometry x="322" y="238" width="76.5" height="93" as="geometry" />
        </mxCell>
        <mxCell id="U5dyf8ECy7FXiap7Likn-114" value="" style="edgeStyle=orthogonalEdgeStyle;orthogonalLoop=1;jettySize=auto;html=1;strokeColor=#000000;curved=1;entryX=0;entryY=0.5;entryDx=0;entryDy=0;entryPerimeter=0;" edge="1" parent="U5dyf8ECy7FXiap7Likn-97" source="U5dyf8ECy7FXiap7Likn-110" target="U5dyf8ECy7FXiap7Likn-115">
          <mxGeometry relative="1" as="geometry">
            <mxPoint x="280" y="204" as="sourcePoint" />
            <mxPoint x="342" y="119" as="targetPoint" />
          </mxGeometry>
        </mxCell>
        <mxCell id="U5dyf8ECy7FXiap7Likn-100" value="Database Server" style="image;aspect=fixed;html=1;points=[];align=center;fontSize=12;image=img/lib/azure2/databases/Azure_SQL_VM.svg;" vertex="1" parent="1">
          <mxGeometry x="1361" y="722" width="94.48" height="88.58" as="geometry" />
        </mxCell>
        <mxCell id="U5dyf8ECy7FXiap7Likn-102" style="edgeStyle=orthogonalEdgeStyle;curved=1;orthogonalLoop=1;jettySize=auto;html=1;strokeColor=#000000;" edge="1" parent="1" source="U5dyf8ECy7FXiap7Likn-113" target="U5dyf8ECy7FXiap7Likn-100">
          <mxGeometry relative="1" as="geometry">
            <mxPoint x="710" y="758" as="targetPoint" />
            <Array as="points">
              <mxPoint x="856" y="684" />
              <mxPoint x="1021" y="684" />
              <mxPoint x="1021" y="750" />
            </Array>
            <mxPoint x="855.5" y="612.31" as="sourcePoint" />
          </mxGeometry>
        </mxCell>
        <mxCell id="U5dyf8ECy7FXiap7Likn-103" value="" style="edgeStyle=orthogonalEdgeStyle;orthogonalLoop=1;jettySize=auto;html=1;strokeColor=#000000;curved=1;" edge="1" parent="1" source="U5dyf8ECy7FXiap7Likn-115" target="U5dyf8ECy7FXiap7Likn-100">
          <mxGeometry relative="1" as="geometry">
            <mxPoint x="890" y="786" as="sourcePoint" />
            <mxPoint x="1052" y="851" as="targetPoint" />
          </mxGeometry>
        </mxCell>
        <mxCell id="U5dyf8ECy7FXiap7Likn-104" value="RabbitMQ" style="points=[[0,0,0],[0.25,0,0],[0.5,0,0],[0.75,0,0],[1,0,0],[0,1,0],[0.25,1,0],[0.5,1,0],[0.75,1,0],[1,1,0],[0,0.25,0],[0,0.5,0],[0,0.75,0],[1,0.25,0],[1,0.5,0],[1,0.75,0]];outlineConnect=0;fontColor=#232F3E;gradientColor=#F34482;gradientDirection=north;fillColor=#BC1356;strokeColor=#ffffff;dashed=0;verticalLabelPosition=bottom;verticalAlign=top;align=center;html=1;fontSize=12;fontStyle=0;aspect=fixed;shape=mxgraph.aws4.resourceIcon;resIcon=mxgraph.aws4.sqs;labelBackgroundColor=#ffffff;" vertex="1" parent="1">
          <mxGeometry x="1031" y="565" width="58" height="58" as="geometry" />
        </mxCell>
        <mxCell id="U5dyf8ECy7FXiap7Likn-105" value="App Server" style="swimlane;shadow=0;strokeColor=#d79b00;fillColor=#ffe6cc;align=center;startSize=0;collapsible=0;strokeWidth=1;fontStyle=0;fontSize=15;labelPosition=center;verticalLabelPosition=bottom;verticalAlign=top;" vertex="1" parent="1">
          <mxGeometry x="998.5" y="548.31" width="257.5" height="124.69" as="geometry" />
        </mxCell>
        <mxCell id="U5dyf8ECy7FXiap7Likn-106" value="Background Services" style="image;aspect=fixed;html=1;points=[];align=center;fontSize=12;image=img/lib/azure2/iot/Windows10_Core_Services.svg;" vertex="1" parent="U5dyf8ECy7FXiap7Likn-105">
          <mxGeometry x="156.5" y="16.689999999999998" width="68" height="68" as="geometry" />
        </mxCell>
        <mxCell id="U5dyf8ECy7FXiap7Likn-107" value="" style="edgeStyle=orthogonalEdgeStyle;orthogonalLoop=1;jettySize=auto;html=1;strokeColor=#000000;curved=1;entryX=0;entryY=0.5;entryDx=0;entryDy=0;exitX=1;exitY=0.5;exitDx=0;exitDy=0;exitPerimeter=0;" edge="1" parent="1" source="U5dyf8ECy7FXiap7Likn-113" target="U5dyf8ECy7FXiap7Likn-105">
          <mxGeometry relative="1" as="geometry">
            <mxPoint x="890" y="580.3" as="sourcePoint" />
            <mxPoint x="1371" y="567" as="targetPoint" />
          </mxGeometry>
        </mxCell>
        <mxCell id="U5dyf8ECy7FXiap7Likn-108" value="" style="edgeStyle=orthogonalEdgeStyle;orthogonalLoop=1;jettySize=auto;html=1;strokeColor=#000000;curved=1;entryX=0.577;entryY=1.016;entryDx=0;entryDy=0;entryPerimeter=0;" edge="1" parent="1" source="U5dyf8ECy7FXiap7Likn-115" target="U5dyf8ECy7FXiap7Likn-105">
          <mxGeometry relative="1" as="geometry">
            <mxPoint x="890" y="790.992" as="sourcePoint" />
            <mxPoint x="1371" y="788" as="targetPoint" />
          </mxGeometry>
        </mxCell>
        <mxCell id="U5dyf8ECy7FXiap7Likn-109" value="" style="edgeStyle=orthogonalEdgeStyle;orthogonalLoop=1;jettySize=auto;html=1;strokeColor=#000000;curved=1;exitX=1;exitY=0.75;exitDx=0;exitDy=0;" edge="1" parent="1" source="U5dyf8ECy7FXiap7Likn-105" target="U5dyf8ECy7FXiap7Likn-100">
          <mxGeometry relative="1" as="geometry">
            <mxPoint x="1287" y="650" as="sourcePoint" />
            <mxPoint x="1544" y="534" as="targetPoint" />
          </mxGeometry>
        </mxCell>
        <mxCell id="U5dyf8ECy7FXiap7Likn-116" style="edgeStyle=orthogonalEdgeStyle;html=1;labelBackgroundColor=#ffffff;startArrow=classic;startFill=1;startSize=4;endArrow=classic;endFill=1;endSize=4;jettySize=auto;orthogonalLoop=1;strokeWidth=2;fontSize=19;fontColor=#CC99FF;elbow=vertical;fillColor=#e1d5e7;strokeColor=#9673a6;rounded=0;curved=1;exitX=0;exitY=0;exitDx=0;exitDy=0;" edge="1" parent="1" source="lown9K5yKBKj89JTiUl6-71" target="U5dyf8ECy7FXiap7Likn-98">
          <mxGeometry relative="1" as="geometry">
            <mxPoint x="432" y="570" as="targetPoint" />
            <Array as="points">
              <mxPoint x="235" y="650" />
              <mxPoint x="390" y="650" />
              <mxPoint x="390" y="640" />
            </Array>
            <mxPoint x="250" y="666" as="sourcePoint" />
          </mxGeometry>
        </mxCell>
        <mxCell id="U5dyf8ECy7FXiap7Likn-117" value="&lt;p style=&quot;line-height: 100%;&quot;&gt;DB Full and Transactional Backup will be restored&lt;/p&gt;" style="shape=flexArrow;endArrow=classic;html=1;rounded=0;strokeColor=#9a1919;" edge="1" parent="1" source="U5dyf8ECy7FXiap7Likn-83" target="U5dyf8ECy7FXiap7Likn-100">
          <mxGeometry width="50" height="50" relative="1" as="geometry">
            <mxPoint x="1383.24" y="464" as="sourcePoint" />
            <mxPoint x="1433.24" y="414" as="targetPoint" />
          </mxGeometry>
        </mxCell>
      </root>
    </mxGraphModel>
  </diagram>
</mxfile>
